<svg xmlns="http://www.w3.org/2000/svg" viewBox="0 0 16 16" id="Github--Streamline-Font-Awesome" height="16" width="16">
  <desc>
    Github Streamline Icon: https://streamlinehq.com
  </desc>
<!--! Font Awesome Free 6.5.2 by @fontawesome - https://fontawesome.com License - https://fontawesome.com/license/free (Icons: CC BY 4.0, Fonts: SIL OFL 1.1, Code: MIT License) Copyright 2024 Fonticons, Inc.-->
  <path d="M5.40458064516129 12.665948387096774c0 0.0632258064516129 -0.07270967741935484 0.11380645161290322 -0.16438709677419355 0.11380645161290322 -0.10432258064516128 0.009483870967741935 -0.17703225806451614 -0.04109677419354839 -0.17703225806451614 -0.11380645161290322 0 -0.0632258064516129 0.07270967741935484 -0.11380645161290322 0.16438709677419355 -0.11380645161290322 0.09483870967741935 -0.009483870967741935 0.17703225806451614 0.04109677419354839 0.17703225806451614 0.11380645161290322Zm-0.9831612903225807 -0.14225806451612905c-0.022129032258064518 0.0632258064516129 0.04109677419354839 0.13593548387096774 0.13593548387096774 0.1549032258064516 0.08219354838709678 0.03161290322580645 0.17703225806451614 0 0.19599999999999998 -0.0632258064516129s-0.04109677419354839 -0.13593548387096774 -0.13593548387096774 -0.16438709677419355c-0.08219354838709678 -0.022129032258064518 -0.17387096774193547 0.009483870967741935 -0.19599999999999998 0.07270967741935484Zm1.3972903225806452 -0.05374193548387096c-0.09167741935483871 0.022129032258064518 -0.1549032258064516 0.08219354838709678 -0.14541935483870969 0.1549032258064516 0.009483870967741935 0.0632258064516129 0.09167741935483871 0.10432258064516128 0.18651612903225806 0.08219354838709678 0.09167741935483871 -0.022129032258064518 0.1549032258064516 -0.08219354838709678 0.14541935483870969 -0.14541935483870969 -0.009483870967741935 -0.06006451612903226 -0.09483870967741935 -0.10116129032258064 -0.18651612903225806 -0.09167741935483871Zm2.080129032258064 -12.114064516129032c-4.384709677419354 0 -7.738838709677419 3.3288387096774192 -7.738838709677419 7.7135483870967745 0 3.5058709677419353 2.20658064516129 6.505935483870967 5.358387096774194 7.561806451612903 0.4046451612903226 0.07270967741935484 0.5469032258064516 -0.17703225806451614 0.5469032258064516 -0.38251612903225807 0 -0.19599999999999998 -0.009483870967741935 -1.2771612903225806 -0.009483870967741935 -1.941032258064516 0 0 -2.212903225806451 0.47419354838709676 -2.6776129032258065 -0.9420645161290323 0 0 -0.36038709677419356 -0.9199354838709677 -0.8788387096774193 -1.1570322580645163 0 0 -0.7239354838709677 -0.49632258064516127 0.05058064516129032 -0.4868387096774194 0 0 0.7871612903225806 0.0632258064516129 1.2202580645161292 0.8156129032258064 0.6923225806451613 1.2202580645161292 1.8525161290322578 0.8693548387096773 2.3045806451612902 0.6607096774193548 0.07270967741935484 -0.5058064516129032 0.2781935483870968 -0.8567096774193548 0.5058064516129032 -1.0653548387096774 -1.7671612903225804 -0.19599999999999998 -3.5501290322580643 -0.4520645161290322 -3.5501290322580643 -3.493225806451613 0 -0.8693548387096773 0.24025806451612905 -1.3056129032258064 0.7460645161290322 -1.862 -0.08219354838709678 -0.20548387096774193 -0.3509032258064516 -1.0527096774193547 0.08219354838709678 -2.146516129032258 0.6607096774193548 -0.20548387096774193 2.181290322580645 0.8535483870967742 2.181290322580645 0.8535483870967742 0.6322580645161291 -0.17703225806451614 1.3119354838709678 -0.2687096774193548 1.985290322580645 -0.2687096774193548s1.3530322580645162 0.09167741935483871 1.985290322580645 0.2687096774193548c0 0 1.5205806451612902 -1.0621935483870966 2.181290322580645 -0.8535483870967742 0.43309677419354836 1.0969677419354837 0.16438709677419355 1.941032258064516 0.08219354838709678 2.146516129032258 0.5058064516129032 0.5595483870967742 0.8156129032258064 0.9958064516129033 0.8156129032258064 1.862 0 3.0506451612903223 -1.862 3.294064516129032 -3.6291612903225805 3.493225806451613 0.29083870967741937 0.24974193548387097 0.5374193548387096 0.7239354838709677 0.5374193548387096 1.4668387096774194 0 1.0653548387096774 -0.009483870967741935 2.3836129032258064 -0.009483870967741935 2.6428387096774193 0 0.20548387096774193 0.14541935483870969 0.45522580645161287 0.5469032258064516 0.38251612903225807 3.161290322580645 -1.0495483870967741 5.304645161290322 -4.049612903225806 5.304645161290322 -7.555483870967742 0 -4.384709677419354 -3.5564516129032255 -7.7135483870967745 -7.94116129032258 -7.7135483870967745Zm-4.666064516129032 10.903290322580645c-0.04109677419354839 0.03161290322580645 -0.03161290322580645 0.10432258064516128 0.022129032258064518 0.16438709677419355 0.05058064516129032 0.05058064516129032 0.12329032258064516 0.07270967741935484 0.16438709677419355 0.03161290322580645 0.04109677419354839 -0.03161290322580645 0.03161290322580645 -0.10432258064516128 -0.022129032258064518 -0.16438709677419355 -0.05058064516129032 -0.05058064516129032 -0.12329032258064516 -0.07270967741935484 -0.16438709677419355 -0.03161290322580645Zm-0.34141935483870967 -0.25606451612903225c-0.022129032258064518 0.04109677419354839 0.009483870967741935 0.09167741935483871 0.07270967741935484 0.12329032258064516 0.05058064516129032 0.03161290322580645 0.11380645161290322 0.022129032258064518 0.13593548387096774 -0.022129032258064518 0.022129032258064518 -0.04109677419354839 -0.009483870967741935 -0.09167741935483871 -0.07270967741935484 -0.12329032258064516 -0.0632258064516129 -0.01896774193548387 -0.11380645161290322 -0.009483870967741935 -0.13593548387096774 0.022129032258064518Zm1.024258064516129 1.1254193548387097c-0.05058064516129032 0.04109677419354839 -0.03161290322580645 0.13593548387096774 0.04109677419354839 0.19599999999999998 0.07270967741935484 0.07270967741935484 0.16438709677419355 0.08219354838709678 0.20548387096774193 0.03161290322580645 0.04109677419354839 -0.04109677419354839 0.022129032258064518 -0.13593548387096774 -0.04109677419354839 -0.19599999999999998 -0.0695483870967742 -0.07270967741935484 -0.16438709677419355 -0.08219354838709678 -0.20548387096774193 -0.03161290322580645Zm-0.36038709677419356 -0.46470967741935487c-0.05058064516129032 0.03161290322580645 -0.05058064516129032 0.11380645161290322 0 0.18651612903225806s0.13593548387096774 0.10432258064516128 0.17703225806451614 0.07270967741935484c0.05058064516129032 -0.04109677419354839 0.05058064516129032 -0.12329032258064516 0 -0.19599999999999998 -0.044258064516129035 -0.07270967741935484 -0.1264516129032258 -0.10432258064516128 -0.17703225806451614 -0.0632258064516129Z" fill="#000000" stroke-width="0.0323"></path>
</svg>