<svg xmlns="http://www.w3.org/2000/svg" viewBox="0 0 16 16" id="Linkedin--Streamline-Font-Awesome" height="16" width="16">
  <desc>
    Linkedin Streamline Icon: https://streamlinehq.com
  </desc>
<!--! Font Awesome Free 6.5.2 by @fontawesome - https://fontawesome.com License - https://fontawesome.com/license/free (Icons: CC BY 4.0, Fonts: SIL OFL 1.1, Code: MIT License) Copyright 2024 Fonticons, Inc.-->
  <path d="M14.72 0.16H1.2764999999999997C0.6605 0.16 0.16 0.6675 0.16 1.2905v13.419c0 0.6229999999999999 0.5005 1.1304999999999998 1.1165 1.1304999999999998H14.72c0.616 0 1.1199999999999999 -0.5075 1.1199999999999999 -1.1304999999999998V1.2905c0 -0.6229999999999999 -0.504 -1.1304999999999998 -1.1199999999999999 -1.1304999999999998ZM4.899 13.6H2.5749999999999997V6.117h2.3275V13.6Zm-1.162 -8.504999999999999c-0.7454999999999999 0 -1.3475 -0.6055 -1.3475 -1.3475s0.602 -1.3475 1.3475 -1.3475c0.742 0 1.3475 0.6055 1.3475 1.3475 0 0.7454999999999999 -0.602 1.3475 -1.3475 1.3475ZM13.610499999999998 13.6h-2.324V9.959999999999999c0 -0.8679999999999999 -0.017499999999999998 -1.9845 -1.2075 -1.9845 -1.211 0 -1.3964999999999999 0.945 -1.3964999999999999 1.9215V13.6h-2.324V6.117h2.2295v1.022h0.0315c0.31149999999999994 -0.588 1.071 -1.2075 2.2015 -1.2075 2.352 0 2.7895 1.5505 2.7895 3.5664999999999996V13.6Z" fill="#000000" stroke-width="0.0357"></path>
</svg>