<svg xmlns="http://www.w3.org/2000/svg" viewBox="0 0 16 16" id="Mastodon--Streamline-Font-Awesome" height="16" width="16">
  <desc>
    Mastodon Streamline Icon: https://streamlinehq.com
  </desc>
<!--! Font Awesome Free 6.5.2 by @fontawesome - https://fontawesome.com License - https://fontawesome.com/license/free (Icons: CC BY 4.0, Fonts: SIL OFL 1.1, Code: MIT License) Copyright 2024 Fonticons, Inc.-->
  <path d="M15.313257142857143 5.308117857142856c0 -3.401453571428571 -2.229492857142857 -4.398796428571429 -2.229492857142857 -4.398796428571429 -2.1878499999999996 -1.0043392857142857 -7.998321428571428 -0.9938392857142857 -10.165171428571428 0 0 0 -2.2298428571428572 0.9973428571428571 -2.2298428571428572 4.398796428571429 0 4.048853571428571 -0.23096428571428568 9.077546428571429 3.6964571428571427 10.116882142857142 1.4176214285714284 0.37443928571428564 2.6357785714285713 0.45492499999999997 3.6159714285714286 0.3989357142857142 1.7780642857142857 -0.09798571428571427 2.7757535714285715 -0.6334 2.7757535714285715 -0.6334l-0.05948928571428571 -1.291292857142857s-1.2706464285714285 0.3989357142857142 -2.698767857142857 0.3534428571428571c-1.4141214285714285 -0.04899285714285714 -2.904535714285714 -0.153975 -3.1365464285714286 -1.8896964285714284 -0.021510714285714282 -0.16123928571428572 -0.032035714285714285 -0.32375357142857136 -0.03149642857142857 -0.48642142857142856 2.9965714285714284 0.7313821428571428 5.551860714285714 0.3184464285714285 6.255249999999999 0.23446071428571427 1.963885714285714 -0.23446071428571427 3.674410714285714 -1.445267857142857 3.892425 -2.5510892857142853 0.34294642857142854 -1.7427214285714285 0.31495 -4.251821428571429 0.31495 -4.251821428571429Zm-2.628778571428571 4.3812999999999995h-1.6317892857142857V5.693057142857143c0 -1.7392214285714285 -2.239642857142857 -1.805710714285714 -2.239642857142857 0.24146071428571428v2.18715h-1.6212892857142855v-2.1875c0 -2.047171428571428 -2.239642857142857 -1.9806821428571428 -2.239642857142857 -0.24146071428571428v3.9963607142857143h-1.635285714285714c0 -4.272817857142857 -0.18197142857142856 -5.1756714285714285 0.6442464285714286 -6.124021428571428 0.9063535714285714 -1.0113357142857142 2.7932535714285716 -1.0778249999999998 3.6334678571428567 0.21346785714285713l0.40593571428571423 0.6823892857142857 0.40593571428571423 -0.6823892857142857c0.8437142857142856 -1.2982928571428571 2.733760714285714 -1.2178071428571426 3.6334678571428567 -0.21346785714285713 0.8297178571428571 0.9553499999999999 0.6438964285714285 1.8547035714285713 0.6438964285714285 6.124021428571428Z" fill="#000000" stroke-width="0.0357"></path>
</svg>