<svg xmlns="http://www.w3.org/2000/svg" xmlns:xlink="http://www.w3.org/1999/xlink" height="128" width="128" xmlns:v="https://vecta.io/nano"><style><![CDATA[.B{fill-opacity:.224}.C{fill:#fff}.D{fill-opacity:.333}.E{fill:#ed333b}.F{fill:#2ec27e}.G{fill:#3584e4}.H{fill:#b5835a}.I{fill-opacity:.133}.J{fill:#cdab8f}.K{fill:#878787}.L{fill-opacity:.188}]]></style><linearGradient id="A" gradientUnits="userSpaceOnUse" x1="20" x2="108" y1="68" y2="68"><stop offset="0" stop-color="#77767b"/><stop offset=".036" stop-color="#c0bfbc"/><stop offset=".071" stop-color="#9a9996"/><stop offset=".929" stop-color="#9a9996"/><stop offset=".964" stop-color="#c0bfbc"/><stop offset="1" stop-color="#77767b"/></linearGradient><linearGradient id="B" gradientUnits="userSpaceOnUse" x1="4" x2="76" y1="32" y2="32"><stop offset="0" stop-color="#ac1925"/><stop offset=".111" stop-color="#c01c28"/><stop offset=".611" stop-color="#c01c28"/><stop offset=".681" stop-color="#e43842"/><stop offset=".75" stop-color="#c01c28"/><stop offset=".819" stop-color="#e43842"/><stop offset=".889" stop-color="#c01c28"/></linearGradient><linearGradient id="C" gradientUnits="userSpaceOnUse"><stop offset="0" stop-color="#c0bfbc"/><stop offset=".111" stop-color="#b1b0ab"/><stop offset=".75" stop-color="#dddbd9"/><stop offset="1" stop-color="#c0bfbc"/></linearGradient><linearGradient id="D" x1="72" x2="72" xlink:href="#C" y1="40" y2="22"/><clipPath id="E"><path d="M78 24h14v2H78zm0 0"/></clipPath><clipPath id="F"><use xlink:href="#h"/></clipPath><clipPath id="G"><path d="M80 28h12v2H80zm0 0"/></clipPath><clipPath id="H"><use xlink:href="#h"/></clipPath><clipPath id="I"><path d="M77 34h15v1H77zm0 0"/></clipPath><clipPath id="J"><use xlink:href="#h"/></clipPath><clipPath id="K"><path d="M80 30h12v1H80zm0 0"/></clipPath><clipPath id="L"><use xlink:href="#h"/></clipPath><linearGradient id="M" gradientUnits="userSpaceOnUse" x1="10" x2="82" y1="64" y2="64"><stop offset="0" stop-color="#22925d"/><stop offset=".111" stop-color="#26a269"/><stop offset=".611" stop-color="#26a269"/><stop offset=".681" stop-color="#2cbc7c"/><stop offset=".75" stop-color="#26a269"/><stop offset=".819" stop-color="#2cbc7c"/><stop offset=".889" stop-color="#26a269"/></linearGradient><linearGradient id="N" x1="78" x2="78" xlink:href="#C" y1="72" y2="54"/><clipPath id="O"><path d="M84 56h14v2H84zm0 0"/></clipPath><clipPath id="P"><use xlink:href="#i"/></clipPath><clipPath id="Q"><path d="M86 60h12v2H86zm0 0"/></clipPath><clipPath id="R"><use xlink:href="#i"/></clipPath><clipPath id="S"><path d="M83 66h15v1H83zm0 0"/></clipPath><clipPath id="T"><use xlink:href="#i"/></clipPath><clipPath id="U"><path d="M86 62h12v1H86zm0 0"/></clipPath><clipPath id="V"><use xlink:href="#i"/></clipPath><linearGradient id="W" gradientUnits="userSpaceOnUse" x1="16" x2="88" y1="96" y2="96"><stop offset="0" stop-color="#1856a3"/><stop offset=".111" stop-color="#1a5fb4"/><stop offset=".611" stop-color="#1a5fb4"/><stop offset=".681" stop-color="#287ce0"/><stop offset=".75" stop-color="#1a5fb4"/><stop offset=".819" stop-color="#287ce0"/><stop offset=".889" stop-color="#1a5fb4"/></linearGradient><linearGradient id="X" x1="84" x2="84" xlink:href="#C" y1="104" y2="86"/><clipPath id="Y"><path d="M90 88h14v2H90zm0 0"/></clipPath><clipPath id="Z"><use xlink:href="#j"/></clipPath><clipPath id="a"><path d="M92 92h12v2H92zm0 0"/></clipPath><clipPath id="b"><use xlink:href="#j"/></clipPath><clipPath id="c"><path d="M89 98h15v1H89zm0 0"/></clipPath><clipPath id="d"><use xlink:href="#j"/></clipPath><clipPath id="e"><path d="M92 94h12v1H92zm0 0"/></clipPath><clipPath id="f"><use xlink:href="#j"/></clipPath><path d="M28 16h72a8 8 0 0 1 8 8v88a8 8 0 0 1-8 8H28a8 8 0 0 1-8-8V24a8 8 0 0 1 8-8zm0 0" fill="url(#A)"/><path d="M28 8h72a8 8 0 0 1 8 8v92a8 8 0 0 1-8 8H28a8 8 0 0 1-8-8V16a8 8 0 0 1 8-8zm0 0" fill="#deddda"/><path d="M4 31.996v.008C4 36.422 7.578 40 11.996 40h35.762A10.24 10.24 0 0 0 55 37c1.656-1.656 4.344-1.656 6 0a10.24 10.24 0 0 0 7.242 3H76V24h-7.758A10.24 10.24 0 0 0 61 27c-1.656 1.656-4.344 1.656-6 0a10.24 10.24 0 0 0-7.242-3H11.996C7.578 24 4 27.578 4 31.996zm0 0" fill="url(#B)"/><path d="M76 24l16-2v2l-4.289 16H76zm0 0" class="H"/><path d="M4 29.996v.008C4 34.422 7.578 38 11.996 38h35.762A10.24 10.24 0 0 0 55 35c1.656-1.656 4.344-1.656 6 0a10.24 10.24 0 0 0 7.242 3H76V22h-7.758A10.24 10.24 0 0 0 61 25c-1.656 1.656-4.344 1.656-6 0a10.24 10.24 0 0 0-7.242-3H11.996C7.578 22 4 25.578 4 29.996zm0 0" class="E"/><path d="M4.063 29.5L4 29.992v.016C4 34.422 7.578 38 11.996 38h35.762A10.24 10.24 0 0 0 55 35c1.656-1.656 4.344-1.656 6 0a10.24 10.24 0 0 0 7.242 3H76v-1h-7.758A10.24 10.24 0 0 1 61 34c-1.656-1.656-4.344-1.656-6 0a10.24 10.24 0 0 1-7.242 3H11.996a8 8 0 0 1-7.934-7.5zm0 0" class="C I"/><use xlink:href="#h" class="J"/><path d="M68 22h8v18h-8zm0 0" fill="url(#D)"/><path d="M92 22l-4.289 16H82l-.145 2h5.859L92 24zm0 0" fill="#a51d2d"/><path d="M84 22a2 2 0 1 0 0 4 2 2 0 1 1 0 4h-2.027c-1.09 0-1.973.883-1.973 1.973V32a2 2 0 0 0 2 2 1.99 1.99 0 0 1 2 1.98c.004 1.109-.891 2.012-2 2.02h5.715L92 22zm0 0" class="E"/><g clip-path="url(#E)" class="B"><g clip-path="url(#F)"><path d="M92 24l-14 2h14zm0 0"/></g></g><g clip-path="url(#G)" class="B"><g clip-path="url(#H)"><path d="M92 28l-12 1 12 1zm0 0"/></g></g><g clip-path="url(#I)" class="B"><g clip-path="url(#J)"><path d="M92 34H77l15 1zm0 0"/></g></g><g clip-path="url(#K)" class="B"><g clip-path="url(#L)"><path d="M92 30l-12 1h12zm0 0"/></g></g><path d="M68 22h1v18h-1zm0 0" class="D K"/><path d="M75 22h1v18h-1zm0 0" class="C D"/><path d="M68 38h8v2h-8zm0 0" class="L"/><use xlink:href="#k" class="B"/><path d="M10 63.996v.008C10 68.422 13.578 72 17.996 72h35.762A10.24 10.24 0 0 0 61 69c1.656-1.656 4.344-1.656 6 0a10.24 10.24 0 0 0 7.242 3H82V56h-7.758A10.24 10.24 0 0 0 67 59c-1.656 1.656-4.344 1.656-6 0a10.24 10.24 0 0 0-7.242-3H17.996C13.578 56 10 59.578 10 63.996zm0 0" fill="url(#M)"/><path d="M82 56l16-2v2l-4.289 16H82zm0 0" class="H"/><path d="M10 61.996v.008C10 66.422 13.578 70 17.996 70h35.762A10.24 10.24 0 0 0 61 67c1.656-1.656 4.344-1.656 6 0a10.24 10.24 0 0 0 7.242 3H82V54h-7.758A10.24 10.24 0 0 0 67 57c-1.656 1.656-4.344 1.656-6 0a10.24 10.24 0 0 0-7.242-3H17.996C13.578 54 10 57.578 10 61.996zm0 0" class="F"/><path d="M10.066 61.5l-.066.492v.012C10 66.422 13.578 70 17.996 70h35.762A10.24 10.24 0 0 0 61 67c1.656-1.656 4.344-1.656 6 0a10.24 10.24 0 0 0 7.242 3H82v-1h-7.758A10.24 10.24 0 0 1 67 66c-1.656-1.656-4.344-1.656-6 0a10.24 10.24 0 0 1-7.242 3H17.996c-4.207-.027-7.672-3.305-7.93-7.5zm0 0" class="C I"/><use xlink:href="#i" class="J"/><path d="M74 54h8v18h-8zm0 0" fill="url(#N)"/><path d="M98 54l-4.289 16H88l-.145 2h5.859L98 56zm0 0" fill="#26a269"/><path d="M90 54a2 2 0 1 0 0 4 2 2 0 1 1 0 4h-2.027c-1.09 0-1.973.883-1.973 1.973V64a2 2 0 0 0 2 2c1.098-.008 1.996.879 2 1.977.004 1.113-.891 2.016-2 2.023h5.715L98 54zm0 0" class="F"/><g clip-path="url(#O)" class="B"><g clip-path="url(#P)"><path d="M98 56l-14 2h14zm0 0"/></g></g><g clip-path="url(#Q)" class="B"><g clip-path="url(#R)"><path d="M98 60l-12 1 12 1zm0 0"/></g></g><g clip-path="url(#S)" class="B"><g clip-path="url(#T)"><path d="M98 66H83l15 1zm0 0"/></g></g><g clip-path="url(#U)" class="B"><g clip-path="url(#V)"><path d="M98 62l-12 1h12zm0 0"/></g></g><path d="M74 54h1v18h-1zm0 0" class="D K"/><path d="M81 54h1v18h-1zm0 0" class="C D"/><path d="M74 70h8v2h-8zm0 0" class="L"/><use xlink:href="#k" x="6" y="32" class="B"/><path d="M16 95.996v.008c0 4.418 3.578 7.996 7.996 7.996h35.762A10.24 10.24 0 0 0 67 101c1.656-1.656 4.344-1.656 6 0a10.24 10.24 0 0 0 7.242 3H88V88h-7.758A10.24 10.24 0 0 0 73 91c-1.656 1.656-4.344 1.656-6 0a10.24 10.24 0 0 0-7.242-3H23.996C19.578 88 16 91.578 16 95.996zm0 0" fill="url(#W)"/><path d="M88 88l16-2v2l-4.289 16H88zm0 0" class="H"/><path d="M16 93.996v.008c0 4.418 3.578 7.996 7.996 7.996h35.762A10.24 10.24 0 0 0 67 99c1.656-1.656 4.344-1.656 6 0a10.24 10.24 0 0 0 7.242 3H88V86h-7.758A10.24 10.24 0 0 0 73 89c-1.656 1.656-4.344 1.656-6 0a10.24 10.24 0 0 0-7.242-3H23.996C19.578 86 16 89.578 16 93.996zm0 0" class="G"/><path d="M16.066 93.5l-.066.496v.012c0 4.414 3.582 7.992 7.996 7.992h35.762A10.23 10.23 0 0 0 67 99c1.656-1.656 4.344-1.656 6 0a10.24 10.24 0 0 0 7.242 3H88v-1h-7.758A10.24 10.24 0 0 1 73 98c-1.656-1.656-4.344-1.656-6 0a10.23 10.23 0 0 1-7.242 3H23.996c-4.207-.027-7.672-3.305-7.93-7.5zm0 0" class="C I"/><use xlink:href="#j" class="J"/><path d="M80 86h8v18h-8zm0 0" fill="url(#X)"/><path d="M104 86l-4.289 16H94l-.145 2h5.859L104 88zm0 0" fill="#1a5fb4"/><path d="M96 86a2 2 0 1 0 0 4 2 2 0 1 1 0 4h-2.027c-1.09 0-1.973.883-1.973 1.973V96a2 2 0 0 0 2 2 1.99 1.99 0 0 1 2 1.98c.004 1.109-.891 2.012-2 2.02h5.715L104 86zm0 0" class="G"/><g clip-path="url(#Y)" class="B"><g clip-path="url(#Z)"><path d="M104 88l-14 2h14zm0 0"/></g></g><g clip-path="url(#a)" class="B"><g clip-path="url(#b)"><path d="M104 92l-12 1 12 1zm0 0"/></g></g><g clip-path="url(#c)" class="B"><g clip-path="url(#d)"><path d="M104 98H89l15 1zm0 0"/></g></g><g clip-path="url(#e)" class="B"><g clip-path="url(#f)"><path d="M104 94l-12 1h12zm0 0"/></g></g><path d="M80 86h1v18h-1zm0 0" class="D K"/><path d="M87 86h1v18h-1zm0 0" class="C D"/><path d="M80 102h8v2h-8zm0 0" class="L"/><use xlink:href="#k" x="12" y="64" class="B"/><g class="E"><use xlink:href="#l"/><use xlink:href="#m"/><path d="M91 15a2 2 0 1 1-4 0 2 2 0 1 1 4 0zm0 0"/></g><g class="F"><use xlink:href="#l" x="4" y="34"/><use xlink:href="#k" x="84" y="48"/></g><use xlink:href="#m" x="3" y="-3" class="E"/><g class="G"><path d="M88 110a4 4 0 1 0 8 0 4 4 0 1 0-8 0zm0 0"/><use xlink:href="#m" x="-2" y="80"/><use xlink:href="#m" x="-12" y="50"/><use xlink:href="#m" x="-40" y="50"/><path d="M58 78a4 4 0 1 0 8 0 4 4 0 1 0-8 0zm0 0"/></g><g class="E"><use xlink:href="#l" x="-36" y="-26"/><path d="M64 17.5c0 1.379-1.121 2.5-2.5 2.5S59 18.879 59 17.5s1.121-2.5 2.5-2.5 2.5 1.121 2.5 2.5zm0 0"/></g><use xlink:href="#m" x="-36" y="80" class="G"/><use xlink:href="#l" x="-28" y="8" class="F"/><defs ><path id="h" d="M76 22h16l-4.289 16H76zm0 0"/><path id="i" d="M82 54h16l-4.289 16H82zm0 0"/><path id="j" d="M88 86h16l-4.289 16H88zm0 0"/><path id="k" d="M16 30a4 4 0 1 1-8 0 4 4 0 1 1 8 0zm0 0"/><path id="l" d="M98 41a3 3 0 1 1-6 0 3 3 0 1 1 6 0zm0 0"/><path id="m" d="M94 29a3 3 0 1 0 6 0 3 3 0 1 0-6 0zm0 0"/></defs></svg>