<?xml version="1.0" encoding="UTF-8"?>
<svg width="128px" height="128px" viewBox="0 0 128 128" xmlns="http://www.w3.org/2000/svg" xmlns:xlink="http://www.w3.org/1999/xlink">
 <linearGradient id="a" gradientUnits="userSpaceOnUse">
  <stop stop-color="#63452c" offset="0"/>
  <stop stop-color="#865e3c" offset=".038462"/>
  <stop stop-color="#63452c" offset=".076856"/>
  <stop stop-color="#63452c" offset=".92308"/>
  <stop stop-color="#865e3c" offset=".96154"/>
  <stop stop-color="#63452c" offset="1"/>
 </linearGradient>
 <linearGradient id="b" x1="88.596" x2="536.6" y1="-449.39" y2="-449.39" gradientTransform="matrix(.23214 0 0 .20395 -8.5669 209.65)" xlink:href="#a"/>
 <linearGradient id="c" x1="88.596" x2="536.6" y1="-449.39" y2="-449.39" gradientTransform="matrix(.23214 0 0 .125 -8.5669 152.17)" xlink:href="#a"/>
 <linearGradient id="d" gradientUnits="userSpaceOnUse">
  <stop stop-color="#3d3846" offset="0"/>
  <stop stop-color="#c0bfbc" offset=".038462"/>
  <stop stop-color="#77767b" offset=".076856"/>
  <stop stop-color="#cbcbcd" offset=".16364"/>
  <stop stop-color="#5f5e63" offset=".92308"/>
  <stop stop-color="#9a9996" offset=".96154"/>
  <stop stop-color="#3d3846" offset="1"/>
 </linearGradient>
 <linearGradient id="e" x1="87.542" x2="535.26" y1="-591.64" y2="-591.64" gradientTransform="matrix(.23214 0 0 .20395 -8.5669 229.95)" xlink:href="#d"/>
 <radialGradient id="f" cx="58.126" cy="294.38" r="52" gradientTransform="matrix(1.6319 0 0 1.3795 -36.73 -291.51)" gradientUnits="userSpaceOnUse">
  <stop stop-color="#deddda" offset="0"/>
  <stop stop-color="#deddda" stop-opacity="0" offset="1"/>
 </radialGradient>
 <linearGradient id="g" x1="30" x2="104" y1="94" y2="108" gradientUnits="userSpaceOnUse">
  <stop stop-color="#f6f5f4" offset="0"/>
  <stop stop-color="#deddda" offset="1"/>
 </linearGradient>
 <radialGradient id="h" cx="105.22" cy="148.63" r="160" gradientTransform="matrix(-.34149 -.18581 -.028119 .28036 103.64 95.975)" gradientUnits="userSpaceOnUse">
  <stop stop-color="#e0371b" offset="0"/>
  <stop stop-color="#f6d32d" offset="1"/>
 </radialGradient>
 <radialGradient id="i" cx="352.98" cy="275.93" r="192" gradientTransform="matrix(.29921 .11247 .07205 -.18331 -46.417 48.045)" gradientUnits="userSpaceOnUse">
  <stop stop-color="#50db81" offset="0"/>
  <stop stop-color="#8ff0a4" stop-opacity=".004149" offset="1"/>
 </radialGradient>
 <radialGradient id="j" cx="527.62" cy="194.65" r="192" gradientTransform="matrix(-.15091 -.18656 -.19365 .15664 225.27 143.03)" gradientUnits="userSpaceOnUse">
  <stop stop-color="#4a86cf" offset="0"/>
  <stop stop-color="#87bae1" stop-opacity="0" offset="1"/>
 </radialGradient>
 <linearGradient id="k" x1="87.542" x2="535.26" y1="-591.64" y2="-591.64" gradientTransform="matrix(.23013 0 0 .20218 -7.9396 400.46)" xlink:href="#d"/>
 <linearGradient id="l" x1="52.55" x2="56.979" y1="103.62" y2="57.049" gradientUnits="userSpaceOnUse">
  <stop stop-color="#9b9a96" offset="0"/>
  <stop stop-color="#c0bfbc" offset="1"/>
 </linearGradient>
 <linearGradient id="m" gradientUnits="userSpaceOnUse">
  <stop stop-color="#b1b0b6" offset="0"/>
  <stop stop-color="#d8d7d6" offset=".5"/>
  <stop stop-color="#6f667f" offset="1"/>
 </linearGradient>
 <linearGradient id="n" x1="49.325" x2="53.605" y1="222.75" y2="230.16" gradientTransform="matrix(-.37768 .92594 .92594 .37768 -115.54 64.282)" xlink:href="#m"/>
 <linearGradient id="o" x1="58" x2="70" y1="-211" y2="-211" gradientTransform="matrix(3.0015 0 0 -3.0015 -128.11 -573.33)" gradientUnits="userSpaceOnUse">
  <stop stop-color="#77767b" offset="0"/>
  <stop stop-color="#9a9996" offset=".5"/>
  <stop stop-color="#77767b" offset="1"/>
 </linearGradient>
 <linearGradient id="p" x1="56.855" x2="71.127" y1="46.093" y2="46.093" gradientUnits="userSpaceOnUse">
  <stop stop-color="#5e5c64" offset="0"/>
  <stop stop-color="#c0bfbc" offset=".5"/>
  <stop stop-color="#3d3846" offset="1"/>
 </linearGradient>
 <linearGradient id="q" gradientUnits="userSpaceOnUse">
  <stop stop-color="#b1b0b6" offset="0"/>
  <stop stop-color="#c0c0be" offset=".27182"/>
  <stop stop-color="#6f667f" offset="1"/>
 </linearGradient>
 <linearGradient id="r" x1="61" x2="67" y1="220" y2="220" gradientTransform="matrix(-.61738 .78666 .78666 .61738 -69.554 20.461)" xlink:href="#q"/>
 <linearGradient id="s" x1="58" x2="70" y1="-211" y2="-211" gradientTransform="matrix(2.3787 0 0 -2.3787 -88.244 -469.48)" gradientUnits="userSpaceOnUse">
  <stop stop-color="#77767b" offset="0"/>
  <stop stop-color="#c0bfbc" offset=".5"/>
  <stop stop-color="#77767b" offset="1"/>
 </linearGradient>
 <radialGradient id="t" cx="-203.37" cy="-63.488" r="12" gradientTransform="matrix(0 -1.1893 -1.1893 0 -12.128 -205.45)" gradientUnits="userSpaceOnUse">
  <stop stop-color="#f0f0f0" offset="0"/>
  <stop stop-color="#9a999a" offset="1"/>
 </radialGradient>
 <linearGradient id="u" x1="61" x2="67" y1="220" y2="220" gradientTransform="matrix(-.61738 .78666 .78666 .61738 -69.554 19.164)" xlink:href="#q"/>
 <linearGradient id="v" x1="49.325" x2="53.605" y1="222.75" y2="230.16" gradientTransform="matrix(-.37768 .92594 .92594 .37768 -115.54 63.533)" xlink:href="#m"/>
 <radialGradient id="w" cx="96.054" cy="219.45" r="2.415" gradientTransform="matrix(-2.4829 0 0 2.7121 268.23 -538.42)" gradientUnits="userSpaceOnUse">
  <stop stop-color="#cfcecd" offset="0"/>
  <stop stop-color="#827b8f" offset="1"/>
 </radialGradient>
 <radialGradient id="x" cx="96.741" cy="219.74" r="2.415" gradientTransform="matrix(2.3554 0 0 2.5729 -128 -507.96)" gradientUnits="userSpaceOnUse">
  <stop stop-color="#92918f" offset="0"/>
  <stop stop-color="#524d5b" offset="1"/>
 </radialGradient>
 <path d="m20 56h88c4.418 0 8 3.582 8 8v46c0 4.418-3.582 8-8 8h-88c-4.418 0-8-3.582-8-8v-46c0-4.418 3.582-8 8-8z" fill="url(#b)"/>
 <path d="m20 30h88v66h-88z" fill="#f6f5f4"/>
 <path d="m20 58h88c4.418 0 8 3.582 8 8v22c0 4.418-3.582 8-8 8h-88c-4.418 0-8-3.582-8-8v-22c0-4.418 3.582-8 8-8z" fill="url(#c)"/>
 <path d="m20 58h88c4.418 0 8 3.582 8 8v46c0 4.418-3.582 8-8 8h-88c-4.418 0-8-3.582-8-8v-46c0-4.418 3.582-8 8-8z" fill="url(#e)"/>
 <path d="m21.453 28.082h85.094c5.2188 0 9.4531 3.582 9.4531 8v71.918c0 4.418-4.2344 8-9.4531 8h-85.094c-5.2188 0-9.4531-3.582-9.4531-8v-71.918c0-4.418 4.2344-8 9.4531-8z" fill="url(#f)"/>
 <path d="m21.453 26.082h85.094c5.2188 0 9.4531 3.582 9.4531 8v71.918c0 4.418-4.2344 8-9.4531 8h-85.094c-5.2188 0-9.4531-3.582-9.4531-8v-71.918c0-4.418 4.2344-8 9.4531-8z" fill="#5e5c64"/>
 <path d="m20 64h88v46h-88z" fill="url(#g)"/>
 <path d="m108 106-0.13672 4h-87.742l-0.12109-4z" fill-opacity=".13726"/>
 <path d="m107.69 106.97h-71.762l71.242 1.0273s0.51953-0.77344 0.51953-1.0273z" fill="#f6f5f4" fill-opacity=".59777"/>
 <path d="m106.77 108.49h-72.605l71.266 1.0234c0.55469-0.28906 1.1328-0.62891 1.3398-1.0234z" fill-opacity=".17135"/>
 <path d="m29.777 67.469 52.238-42.254c2.4102-1.9531 5.8984-1.6133 7.8125 0.75781l21.664 26.777-3.3477 29.25-40.266 32.57c-2.4141 1.9531-5.8984 1.6133-7.8164-0.75391l-31.18-38.547c-1.9141-2.3711-1.5195-5.8477 0.89453-7.8008z" fill="#f6f5f4"/>
 <path d="m111.55 52.816-11.973 9.6836c-2.4102 1.9492-2.8086 5.4297-0.89062 7.8008l9.4609 11.699z" fill="#deddda"/>
 <path d="m33.27 71.785 31.148 38.508 40.266-32.57-6-7.4219c-1.918-2.3711-1.5195-5.8516 0.89062-7.8008l7.6172-6.1602-21.684-26.812z" fill="url(#h)"/>
 <path d="m33.27 71.785 31.148 38.508 40.266-32.57-6-7.4219c-1.918-2.3711-1.5195-5.8516 0.89062-7.8008l7.6172-6.1602-21.684-26.812z" fill="url(#i)"/>
 <path d="m33.27 71.785 31.148 38.508 40.266-32.57-6-7.4219c-1.918-2.3711-1.5195-5.8516 0.89062-7.8008l7.6172-6.1602-21.684-26.812z" fill="url(#j)"/>
 <path d="m83.855 101.5 34.844-34.109c0.78125-0.76172 1.207-1.8164 1.1758-2.9062-0.027344-1.0898-0.50781-2.1172-1.3281-2.8398l-9.207-8.0898z" fill="#f6f5f4"/>
 <path d="m20.02 64.328h88.07c4.418 0 8 3.582 8 8v21.73c0 4.418-3.582 8-8 8h-88.07c-4.418 0-8-3.582-8-8v-21.73c0-4.418 3.582-8 8-8z" fill="url(#e)"/>
 <path transform="translate(0 -172)" d="m21.824 190.43h84.23c5.2227 0 9.4531 3.582 9.4531 8v63.363c0 4.418-4.2305 8-9.4531 8h-84.23c-5.2188 0-9.4531-3.582-9.4531-8v-63.363c0-4.418 4.2344-8 9.4531-8z" fill="url(#k)" stroke="#9a9996"/>
 <path d="m21.375 16h85.129c5.2227 0 9.457 3.582 9.457 8v64.059c0 4.418-4.2344 8-9.457 8h-85.129c-5.2227 0-9.4531-3.582-9.4531-8v-64.059c0-4.418 4.2305-8 9.4531-8z" fill="url(#l)"/>
 <path transform="matrix(1.1893 0 0 1.1893 -12.127 -214.83)" d="m57.659 210.34 34.781-25.779" fill="#77767b" stroke="url(#n)" stroke-linecap="round" stroke-width="6.7264"/>
 <path d="m63.992 36.352c-9.9492 0-18.012 8.0664-18.012 18.012v5.6289c0 9.9453 8.0625 18.008 18.012 18.008 9.9453 0 18.008-8.0625 18.008-18.008v-5.6289c0-9.9453-8.0625-18.012-18.008-18.012z" fill="url(#o)"/>
 <path d="m63.992 36.629c-9.5 0-17.199 7.6992-17.199 17.195 0 9.5 7.6992 17.199 17.199 17.199 9.4961 0 17.195-7.6992 17.195-17.199 0-9.4961-7.6992-17.195-17.195-17.195z" fill="#deddda"/>
 <path d="m58.043 31.227-1.1875 2.3789 1.1875 2.3789-1.1875 2.3789 1.1875 2.3789-1.1875 2.3789 1.1875 2.3789-1.1875 2.3789 1.1875 2.3789-1.1875 2.3789v1.1875c0 2.5508 1.3594 4.9062 3.5664 6.1797 2.207 1.2734 4.9297 1.2734 7.1367 0 2.207-1.2734 3.5664-3.6289 3.5664-6.1797v-3.5664l-1.1875-2.3789 1.1875-2.3789-1.1875-2.3789 1.1875-2.3789-1.1875-2.3789 1.1875-2.3789-1.1875-2.3789 1.1875-2.3789-1.1875-2.3789z" fill="url(#p)"/>
 <path d="m69.938 33.605s-1.6094 4.3477-5.8398 4.7773c-4.2344 0.42969-6.0547-2.3984-6.0547-2.3984l-1.1875 2.3789s2.4883 3.3086 7.2422 3.0352c4.75-0.27734 6.8828-5.3672 7.0273-5.4141z" fill="#fff" fill-opacity=".38189"/>
 <path d="m71.125 35.984c-0.14453 0.046875-2.2773 5.1367-7.0273 5.4141-4.7539 0.27344-7.2422-3.0352-7.2422-3.0352l1.1875 2.3789s1.8203 2.8242 6.0547 2.3984c4.2305-0.42969 5.8398-4.7773 5.8398-4.7773l0.050781 0.10156z" fill="#241f31" fill-opacity=".33858"/>
 <g fill="#fff" fill-opacity=".38189">
  <path d="m69.938 43.121s-1.6094 4.3477-5.8398 4.7773c-4.2344 0.42578-6.0547-2.3984-6.0547-2.3984l-1.1875 2.3789s2.4883 3.3086 7.2422 3.0312c4.75-0.27734 6.8828-5.3633 7.0273-5.4102z"/>
  <path d="m69.938 47.879s-1.7148 4.3477-5.9453 4.7773c-4.2344 0.42578-5.9492-2.3984-5.9492-2.3984l-1.1875 2.3789s2.3828 3.3086 7.1367 3.0312c4.75-0.27734 6.9883-5.3672 7.1328-5.4102z"/>
  <path d="m69.938 38.363s-1.6094 4.3477-5.8398 4.7773c-4.2344 0.42578-6.0547-2.3984-6.0547-2.3984l-1.1875 2.3789s2.4883 3.3086 7.2422 3.0312c4.75-0.27344 6.8828-5.3633 7.0273-5.4102z"/>
 </g>
 <path d="m71.125 45.5c-0.14453 0.046875-2.2773 5.1367-7.0273 5.4102-4.7539 0.27734-7.2422-3.0312-7.2422-3.0312l1.1875 2.3789s1.8203 2.8242 6.0547 2.3945c4.2305-0.42578 5.8398-4.7734 5.8398-4.7734l0.050781 0.10156z" fill="#241f31" fill-opacity=".33858"/>
 <path d="m71.125 40.742c-0.14453 0.046874-2.2773 5.1367-7.0273 5.4102-4.7539 0.27734-7.2422-3.0312-7.2422-3.0312l1.1875 2.3789s1.8203 2.8242 6.0547 2.3945c4.2305-0.42578 5.8398-4.7734 5.8398-4.7734l0.050781 0.10156z" fill="#241f31" fill-opacity=".33858"/>
 <path transform="matrix(1.1893 0 0 1.1893 -12.127 -214.83)" d="m69.003 210.13-33.323-25.726" fill="#77767b" stroke="url(#r)" stroke-linecap="round" stroke-width="6.7264"/>
 <path d="m78.262 32.418c0-7.8828-6.3906-14.273-14.27-14.273-7.8828 0-14.273 6.3906-14.273 14.273 0 7.8828 6.3906 14.27 14.273 14.27 7.8789 0 14.27-6.3867 14.27-14.27z" fill="url(#s)"/>
 <path d="m63.992 11.008c-7.8828 0-14.273 6.3906-14.273 14.273s6.3906 14.273 14.273 14.273c7.8789 0 14.27-6.3906 14.27-14.273s-6.3906-14.273-14.27-14.273z" fill="url(#t)"/>
 <path d="m49.742 31.711c-0.011719 0.23437-0.019532 0.46875-0.023438 0.70703 0 7.8828 6.3906 14.27 14.273 14.27 7.8789 0 14.27-6.3867 14.27-14.27-0.003907-0.16406-0.011719-0.32422-0.023438-0.48438-0.375 7.5977-6.6406 13.562-14.246 13.566-7.6875-0.011719-13.988-6.1055-14.25-13.789z" fill="#77767b"/>
 <path d="m63.992 11.008c-6.8125 0-12.336 5.5234-12.336 12.336s5.5234 12.336 12.336 12.336 12.332-5.5234 12.332-12.336-5.5195-12.336-12.332-12.336z" fill="#c0bfbc"/>
 <path transform="matrix(1.1893 0 0 1.1893 -12.127 -214.83)" d="m92.319 227.56-17.791-13.962" fill="#77767b" stroke="url(#u)" stroke-linecap="round" stroke-width="6.7264"/>
 <path transform="matrix(1.1893 0 0 1.1893 -12.127 -214.83)" d="m35.559 227.95 17.867-13.863" fill="#77767b" stroke="url(#v)" stroke-linecap="round" stroke-width="6.7264"/>
 <path d="m26.164 56.594c0 2.0391 1.6523 3.6914 3.6953 3.6914 1.1641 0 2.2539-1.4844 2.2539-2.8008 0-2.0391-1.6562-3.6953-3.6953-3.6953-1.125 0-2.2539 1.1719-2.2539 2.8047z" fill="url(#w)"/>
 <path d="m101.65 55.969c0 2.2344-1.8125 4.043-4.043 4.043-1.2773 0-2.4688-1.6211-2.4688-3.0664 0-2.2344 1.8125-4.043 4.043-4.043 1.2305 0 2.4688 1.2812 2.4688 3.0664z" fill="#9c98a2"/>
 <path d="m101.65 56.508c0 1.9375-1.5703 3.5039-3.5039 3.5039-1.1055 0-2.1406-1.4062-2.1406-2.6562 0-1.9375 1.5703-3.5039 3.5078-3.5039 1.0664 0 2.1367 1.1094 2.1367 2.6562z" fill="url(#x)"/>
 <path d="m50.59 102.09 1.9805 2.7891h27.285l3.4141-2.8867z" fill-opacity=".22458"/>
</svg>
