<?xml version="1.0" encoding="UTF-8" standalone="no"?>
<!-- Created with Inkscape (http://www.inkscape.org/) -->

<svg
   xmlns:dc="http://purl.org/dc/elements/1.1/"
   xmlns:cc="http://creativecommons.org/ns#"
   xmlns:rdf="http://www.w3.org/1999/02/22-rdf-syntax-ns#"
   xmlns:svg="http://www.w3.org/2000/svg"
   xmlns="http://www.w3.org/2000/svg"
   xmlns:sodipodi="http://sodipodi.sourceforge.net/DTD/sodipodi-0.dtd"
   xmlns:inkscape="http://www.inkscape.org/namespaces/inkscape"
   width="1241.4935"
   height="324.85291"
   viewBox="0 0 328.47847 85.950668"
   version="1.1"
   id="svg8"
   inkscape:version="0.92.4 5da689c313, 2019-01-14"
   sodipodi:docname="hposolutions.svg">
  <defs
     id="defs2">
    <filter
       style="color-interpolation-filters:sRGB"
       inkscape:label="Drop Shadow"
       id="filter1200">
      <feFlood
         flood-opacity="0.294118"
         flood-color="rgb(0,0,0)"
         result="flood"
         id="feFlood1190" />
      <feComposite
         in="flood"
         in2="SourceGraphic"
         operator="in"
         result="composite1"
         id="feComposite1192" />
      <feGaussianBlur
         in="composite1"
         stdDeviation="3"
         result="blur"
         id="feGaussianBlur1194" />
      <feOffset
         dx="2"
         dy="2"
         result="offset"
         id="feOffset1196" />
      <feComposite
         in="SourceGraphic"
         in2="offset"
         operator="over"
         result="fbSourceGraphic"
         id="feComposite1198" />
      <feColorMatrix
         result="fbSourceGraphicAlpha"
         in="fbSourceGraphic"
         values="0 0 0 -1 0 0 0 0 -1 0 0 0 0 -1 0 0 0 0 1 0"
         id="feColorMatrix1202" />
      <feFlood
         id="feFlood1204"
         flood-opacity="0.294118"
         flood-color="rgb(0,0,0)"
         result="flood"
         in="fbSourceGraphic" />
      <feComposite
         in2="fbSourceGraphic"
         id="feComposite1206"
         in="flood"
         operator="in"
         result="composite1" />
      <feGaussianBlur
         id="feGaussianBlur1208"
         in="composite1"
         stdDeviation="3"
         result="blur" />
      <feOffset
         id="feOffset1210"
         dx="2"
         dy="2"
         result="offset" />
      <feComposite
         in2="offset"
         id="feComposite1212"
         in="fbSourceGraphic"
         operator="over"
         result="composite2" />
    </filter>
    <filter
       style="color-interpolation-filters:sRGB"
       inkscape:label="Drop Shadow"
       id="filter1224">
      <feFlood
         flood-opacity="0.294118"
         flood-color="rgb(0,0,0)"
         result="flood"
         id="feFlood1214" />
      <feComposite
         in="flood"
         in2="SourceGraphic"
         operator="in"
         result="composite1"
         id="feComposite1216" />
      <feGaussianBlur
         in="composite1"
         stdDeviation="3"
         result="blur"
         id="feGaussianBlur1218" />
      <feOffset
         dx="2"
         dy="2"
         result="offset"
         id="feOffset1220" />
      <feComposite
         in="SourceGraphic"
         in2="offset"
         operator="over"
         result="composite2"
         id="feComposite1222" />
    </filter>
  </defs>
  <sodipodi:namedview
     id="base"
     pagecolor="#ffffff"
     bordercolor="#666666"
     borderopacity="1.0"
     inkscape:pageopacity="0.0"
     inkscape:pageshadow="2"
     inkscape:zoom="0.52503318"
     inkscape:cx="758.50622"
     inkscape:cy="-74.073331"
     inkscape:document-units="mm"
     inkscape:current-layer="text853"
     showgrid="false"
     inkscape:window-width="1854"
     inkscape:window-height="1016"
     inkscape:window-x="66"
     inkscape:window-y="27"
     inkscape:window-maximized="1"
     units="px"
     inkscape:pagecheckerboard="true"
     inkscape:lockguides="true" />
  <metadata
     id="metadata5">
    <rdf:RDF>
      <cc:Work
         rdf:about="">
        <dc:format>image/svg+xml</dc:format>
        <dc:type
           rdf:resource="http://purl.org/dc/dcmitype/StillImage" />
        <dc:title />
      </cc:Work>
    </rdf:RDF>
  </metadata>
  <g
     inkscape:label="Calque 1"
     inkscape:groupmode="layer"
     id="layer1"
     transform="translate(-9.9413328,-187.87882)">
    <g
       id="g900">
      <g
         aria-label="IT SOLUTIONS"
         style="font-style:normal;font-variant:normal;font-weight:normal;font-stretch:normal;font-size:28.50740242px;line-height:1.25;font-family:Roboto;-inkscape-font-specification:Roboto;letter-spacing:0px;word-spacing:0px;fill:#4d4d4d;fill-opacity:1;stroke:none;stroke-width:0.71268505"
         id="text819"
         transform="translate(0,2.6705934e-6)">
        <g
           aria-label="HPOSOLUTIONS"
           style="font-style:normal;font-variant:normal;font-weight:bold;font-stretch:normal;font-size:33.92845154px;line-height:1.25;font-family:'Fredoka One';-inkscape-font-specification:'Fredoka One Bold';letter-spacing:0px;word-spacing:0px;fill:#ffffff;fill-opacity:1;stroke:none;stroke-width:0.25187814"
           id="text832">
          <g
             aria-label="HPOSolutions"
             style="font-style:normal;font-variant:normal;font-weight:normal;font-stretch:normal;font-size:36.39171982px;line-height:1.25;font-family:'Fredoka One';-inkscape-font-specification:'Fredoka One';letter-spacing:0px;word-spacing:0px;fill:#000000;fill-opacity:1;stroke:none;stroke-width:0.22915699"
             id="text853">
            <path
               d="m 116.647,219.04504 q 0.29113,-0.54588 0.98257,-0.76423 0.69145,-0.21835 1.74681,-0.21835 1.05536,0 1.67402,0.18196 0.61865,0.18196 0.94618,0.4367 0.32753,0.25475 0.50948,0.72784 0.18196,0.61866 0.18196,1.89237 v 20.1974 q 0,0.83701 -0.0728,1.27371 -0.0364,0.40031 -0.32753,0.94619 -0.50948,0.98257 -2.83855,0.98257 -2.54742,0 -2.98412,-1.34649 -0.21835,-0.61866 -0.21835,-1.89237 v -7.38752 h -9.64381 v 7.42391 q 0,0.83701 -0.0728,1.27371 -0.0364,0.40031 -0.32753,0.94619 -0.50948,0.98257 -2.83855,0.98257 -2.54742,0 -2.98412,-1.34649 -0.21835,-0.61866 -0.21835,-1.89237 v -20.1974 q 0,-0.83701 0.0364,-1.23732 0.0728,-0.4367 0.36392,-0.98258 0.50948,-0.98258 2.83855,-0.98258 2.54742,0 3.02051,1.3465 0.18196,0.61866 0.18196,1.89237 v 7.42391 h 9.64381 v -7.4603 q 0,-0.83701 0.0364,-1.23732 0.0728,-0.4367 0.36392,-0.98258 z"
               style="fill:#1a1a1a;stroke-width:0.22915699"
               id="path863" />
            <path
               d="m 145.29524,223.44844 q 0.94619,1.92876 0.94619,4.29422 0,2.36546 -0.94619,4.29422 -0.94618,1.89237 -2.43824,3.02052 -3.02052,2.32907 -6.25938,2.32907 h -4.54897 v 4.11226 q 0,0.83701 -0.0728,1.27371 -0.0364,0.40031 -0.32752,0.94619 -0.50949,0.98257 -2.83856,0.98257 -2.54742,0 -2.98412,-1.34649 -0.21835,-0.61866 -0.21835,-1.89237 v -20.1974 q 0,-0.83701 0.0364,-1.23732 0.0728,-0.4367 0.36392,-0.98258 0.50948,-0.98258 2.83855,-0.98258 h 7.78783 q 3.20247,0 6.22299,2.32907 1.49206,1.12815 2.43824,3.05691 z m -8.66123,7.49669 q 1.09175,0 2.14711,-0.80062 1.05536,-0.80061 1.05536,-2.40185 0,-1.60123 -1.05536,-2.40185 -1.05536,-0.83701 -2.1835,-0.83701 h -4.54897 v 6.44133 z"
               style="fill:#1a1a1a;stroke-width:0.22915699"
               id="path865" />
            <path
               d="m 161.15521,217.73494 q 5.38597,0 9.35267,3.89391 3.9667,3.89392 3.9667,9.6802 0,5.74989 -3.78474,9.82576 -3.78474,4.03949 -9.31628,4.03949 -5.53154,0 -9.42546,-4.00309 -3.85752,-4.00309 -3.85752,-9.53463 0,-3.02052 1.09175,-5.64072 1.09175,-2.6566 2.91134,-4.43979 1.81958,-1.7832 4.18505,-2.80216 2.36546,-1.01897 4.87649,-1.01897 z m -6.6233,13.71968 q 0,3.23886 2.07433,5.2768 2.11072,2.00154 4.69453,2.00154 2.58382,0 4.65814,-1.96515 2.07433,-1.96515 2.07433,-5.2768 0,-3.31165 -2.11072,-5.31319 -2.07433,-2.00155 -4.65814,-2.00155 -2.58381,0 -4.65814,2.03794 -2.07433,2.00154 -2.07433,5.24041 z"
               style="fill:#1a1a1a;stroke-width:0.22915699"
               id="path867" />
            <path
               d="m 177.25456,240.98925 q -0.94618,-1.16454 -0.94618,-2.07433 0,-0.94619 1.56484,-2.47464 0.90979,-0.8734 1.92876,-0.8734 1.01897,0 2.83855,1.81959 0.50949,0.61866 1.45567,1.20092 0.94619,0.54588 1.74681,0.54588 3.38443,0 3.38443,-2.76577 0,-0.83701 -0.94619,-1.38289 -0.90979,-0.58226 -2.29268,-0.83701 -1.38288,-0.25474 -2.98412,-0.80061 -1.60123,-0.58227 -2.98412,-1.3465 -1.38288,-0.76422 -2.32907,-2.40185 -0.90979,-1.67402 -0.90979,-4.00309 0,-3.20247 2.36546,-5.56793 2.40185,-2.40186 6.51412,-2.40186 2.1835,0 3.96669,0.58227 1.81959,0.54588 2.51103,1.12814 l 0.9098,0.69145 q 1.12814,1.05536 1.12814,1.78319 0,0.72784 -0.8734,2.00155 -1.23732,1.81958 -2.54742,1.81958 -0.76423,0 -1.89237,-0.72783 -0.10918,-0.0728 -0.4367,-0.36392 -0.29114,-0.29113 -0.54588,-0.47309 -0.76422,-0.47309 -1.96515,-0.47309 -1.16454,0 -1.96515,0.58226 -0.76423,0.54588 -0.76423,1.56485 0,0.98257 0.90979,1.60123 0.94619,0.61866 2.32907,0.83701 1.38289,0.21835 3.02052,0.69144 1.63762,0.43671 3.02051,1.09176 1.38288,0.65505 2.29268,2.29267 0.94618,1.60124 0.94618,3.9667 0,2.36546 -0.94618,4.18505 -0.94619,1.78319 -2.47464,2.76577 -2.94773,1.92876 -6.29577,1.92876 -1.71041,0 -3.23886,-0.40031 -1.52845,-0.4367 -2.47464,-1.05536 -1.92876,-1.16453 -2.69298,-2.25628 z"
               style="fill:#ffffff;stroke-width:0.22915699"
               id="path869" />
            <path
               d="m 197.56057,235.16657 q 0,-4.367 3.05691,-7.20556 3.0569,-2.83855 6.98721,-2.83855 3.9303,0 6.95082,2.83855 3.02051,2.80216 3.02051,7.16917 0,3.02051 -1.56485,5.38598 -1.56484,2.32907 -3.82113,3.45721 -2.21989,1.09175 -4.62174,1.09175 -2.40186,0 -4.65814,-1.16453 -2.25629,-1.20093 -3.82114,-3.49361 -1.52845,-2.32907 -1.52845,-5.24041 z m 7.60587,2.62021 q 1.16454,0.8734 2.36546,0.8734 1.20093,0 2.40186,-0.9098 1.20092,-0.90979 1.20092,-2.69298 0,-1.7832 -1.12814,-2.6566 -1.12814,-0.8734 -2.43824,-0.8734 -1.31011,0 -2.43825,0.90979 -1.12814,0.9098 -1.12814,2.69299 0,1.7468 1.16453,2.6566 z"
               style="fill:#ffffff;stroke-width:0.22915699"
               id="path871" />
            <path
               d="m 219.92726,219.73648 q 0,-0.83701 0.0364,-1.23732 0.0728,-0.4367 0.32752,-0.98257 0.50949,-0.98258 2.83856,-0.98258 2.21989,0 2.76577,0.98258 0.29113,0.54587 0.32752,0.98257 0.0728,0.43671 0.0728,1.27371 v 16.84937 q 0,1.3101 0.21835,1.67402 0.21835,0.32753 0.94618,0.32753 0.76423,0 1.01897,0.0728 0.25474,0.0364 0.61866,0.29113 0.72783,0.4731 0.72783,2.58381 0,2.29268 -0.72783,2.80217 -0.94619,0.65505 -4.51258,0.21835 -2.80216,-0.36392 -3.63917,-1.85598 -1.01897,-1.78319 -1.01897,-5.67711 z"
               style="fill:#ffffff;stroke-width:0.22915699"
               id="path873" />
            <path
               d="m 239.9575,244.66481 q -3.67556,0 -6.11381,-2.76577 -2.40185,-2.80216 -2.40185,-6.80525 v -6.36855 q 0,-0.8734 0.0364,-1.27371 0.0728,-0.40031 0.32752,-0.94619 0.50949,-0.98257 2.83856,-0.98257 2.54742,0 2.98412,1.38288 0.21835,0.58227 0.21835,1.85598 v 6.36855 q 0,1.49206 0.83701,2.32907 0.8734,0.83701 2.29268,0.83701 1.45567,0 2.32907,-0.8734 0.90979,-0.8734 0.90979,-2.29268 v -6.44133 q 0,-0.83701 0.0364,-1.23732 0.0728,-0.4367 0.36392,-0.98258 0.47309,-0.94618 2.80216,-0.94618 2.29268,0 2.80216,0.98257 0.25475,0.54588 0.29114,0.98258 0.0728,0.40031 0.0728,1.23732 v 12.88267 q 0,0.80061 -0.0728,1.23732 -0.0364,0.4003 -0.32753,0.90979 -0.54587,0.94618 -2.80216,0.94618 -2.21989,0 -2.72938,-0.8734 -0.36392,-0.61866 -0.36392,-1.49206 -0.14556,0.25474 -0.65505,0.72784 -0.50948,0.47309 -0.98257,0.80061 -1.23732,0.80062 -2.69299,0.80062 z"
               style="fill:#ffffff;stroke-width:0.22915699"
               id="path875" />
            <path
               d="m 264.61175,232.00049 -2.36547,-0.14556 v 5.02205 q 0,0.98258 0.29114,1.41928 0.32752,0.4367 1.16453,0.4367 0.8734,0 1.3101,0.0728 0.4731,0.0364 0.98258,0.32753 0.83701,0.47309 0.83701,2.43824 0,2.29268 -1.01897,2.80217 -0.54587,0.25474 -0.98257,0.32752 -0.40031,0.0364 -1.20093,0.0364 -3.78474,0 -5.74989,-1.71041 -1.96516,-1.71041 -1.96516,-5.78628 v -5.38597 q -0.69144,0.10917 -1.49206,0.10917 -0.80061,0 -1.34649,-0.61866 -0.50948,-0.61866 -0.50948,-2.11072 0,-1.49206 0.18195,-2.14711 0.18196,-0.69144 0.50949,-0.98258 0.58227,-0.47309 1.45567,-0.47309 l 1.20092,0.14557 v -3.74835 q 0,-0.83701 0.0364,-1.23732 0.0728,-0.40031 0.36391,-0.8734 0.4731,-0.90979 2.80217,-0.90979 2.47463,0 2.94772,1.34649 0.18196,0.58227 0.18196,1.85598 v 3.56639 q 1.60124,-0.14557 2.40186,-0.14557 0.83701,0 1.23732,0.0728 0.4367,0.0364 0.98257,0.32752 0.94619,0.47309 0.94619,2.80216 0,2.29268 -0.98258,2.80217 -0.54588,0.25474 -0.98258,0.32752 -0.40031,0.0364 -1.23731,0.0364 z"
               style="fill:#ffffff;stroke-width:0.22915699"
               id="path877" />
            <path
               d="m 269.82372,228.76163 q 0,-0.83701 0.0364,-1.23732 0.0728,-0.4367 0.32753,-0.98258 0.50948,-0.94618 2.83855,-0.94618 1.7468,0 2.47464,0.61866 0.61866,0.50948 0.65505,1.56484 0.0364,0.36392 0.0364,1.05536 v 12.7371 q 0,0.83701 -0.0728,1.27372 -0.0364,0.4003 -0.32753,0.94618 -0.47309,0.94618 -2.80216,0.94618 -2.29268,0 -2.80216,-0.98257 -0.25475,-0.54588 -0.32753,-0.94619 -0.0364,-0.40031 -0.0364,-1.27371 z m 5.96824,-6.73247 q -0.25474,0.50949 -0.94618,0.72784 -0.69145,0.21835 -1.85598,0.21835 -1.12815,0 -1.81959,-0.21835 -0.69144,-0.21835 -0.98257,-0.76423 -0.25475,-0.54588 -0.32753,-0.94618 -0.0364,-0.43671 -0.0364,-1.27372 0,-0.837 0.0364,-1.23731 0.0728,-0.4367 0.32753,-0.94619 0.50948,-0.98257 2.83855,-0.98257 2.29268,0 2.76577,0.98257 0.29113,0.54588 0.32753,0.98258 0.0728,0.40031 0.0728,1.23732 0,0.83701 -0.0728,1.27371 -0.0364,0.40031 -0.32753,0.94618 z"
               style="fill:#ffffff;stroke-width:0.22915699"
               id="path879" />
            <path
               d="m 278.58902,235.16657 q 0,-4.367 3.0569,-7.20556 3.0569,-2.83855 6.98721,-2.83855 3.93031,0 6.95082,2.83855 3.02051,2.80216 3.02051,7.16917 0,3.02051 -1.56484,5.38598 -1.56485,2.32907 -3.82113,3.45721 -2.2199,1.09175 -4.62175,1.09175 -2.40186,0 -4.65814,-1.16453 -2.25629,-1.20093 -3.82113,-3.49361 -1.52845,-2.32907 -1.52845,-5.24041 z m 7.60586,2.62021 q 1.16454,0.8734 2.36547,0.8734 1.20092,0 2.40185,-0.9098 1.20093,-0.90979 1.20093,-2.69298 0,-1.7832 -1.12815,-2.6566 -1.12814,-0.8734 -2.43824,-0.8734 -1.3101,0 -2.43825,0.90979 -1.12814,0.9098 -1.12814,2.69299 0,1.7468 1.16453,2.6566 z"
               style="fill:#ffffff;stroke-width:0.22915699"
               id="path881" />
            <path
               d="m 311.61848,225.55916 q 3.63917,0 6.04103,2.80216 2.43824,2.76577 2.43824,6.76886 v 6.40494 q 0,0.83701 -0.0728,1.27371 -0.0364,0.40031 -0.29114,0.9098 -0.50948,0.98257 -2.83855,0.98257 -2.58381,0 -2.98412,-1.34649 -0.21835,-0.61866 -0.21835,-1.85598 v -6.40494 q 0,-1.49206 -0.8734,-2.32907 -0.83701,-0.83701 -2.29268,-0.83701 -1.41928,0 -2.32907,0.8734 -0.8734,0.8734 -0.8734,2.29268 v 6.44133 q 0,0.83701 -0.0728,1.27371 -0.0364,0.40031 -0.32752,0.9098 -0.47309,0.98257 -2.80216,0.98257 -2.29268,0 -2.80217,-0.98257 -0.25474,-0.54588 -0.32752,-0.94619 -0.0364,-0.4367 -0.0364,-1.27371 v -12.88267 q 0,-0.80062 0.0364,-1.20092 0.0728,-0.4367 0.36392,-0.94619 0.50948,-0.90979 2.80216,-0.90979 2.21989,0 2.72938,0.83701 0.36391,0.61866 0.36391,1.49206 0.14557,-0.25474 0.65506,-0.72784 0.50948,-0.47309 0.98257,-0.76422 1.23732,-0.83701 2.72938,-0.83701 z"
               style="fill:#ffffff;stroke-width:0.22915699"
               id="path883" />
            <path
               d="m 323.13532,243.02718 q -0.69145,-0.4367 -0.69145,-1.38288 0,-0.94619 1.38289,-2.87495 0.40031,-0.61866 1.27371,-0.61866 0.90979,0 2.43824,0.9098 1.52846,0.8734 2.76577,0.8734 2.2199,0 2.2199,-0.8734 0,-0.69145 -2.43825,-1.01897 -2.29267,-0.32753 -4.54896,-1.71041 -1.05536,-0.65505 -1.7468,-2.03794 -0.69145,-1.41928 -0.69145,-3.34804 0,-5.74989 7.89701,-5.74989 2.58381,0 5.31319,1.23732 1.27371,0.58227 1.27371,1.45567 0,0.8734 -0.80062,2.14711 -0.80062,1.27371 -1.63763,1.27371 -0.4367,0 -1.63762,-0.54588 -1.16454,-0.54587 -2.54742,-0.54587 -2.14712,0 -2.14712,0.80062 0,1.09175 2.47464,1.41927 2.40185,0.25475 4.65814,1.38289 1.05536,0.50948 1.7468,1.78319 0.72784,1.23732 0.72784,3.12969 0,1.89237 -0.72784,3.23886 -0.69144,1.31011 -1.96515,1.96516 -2.32907,1.12814 -5.85907,1.12814 -3.4936,0 -6.73246,-2.03794 z"
               style="fill:#ffffff;stroke-width:0.22915699"
               id="path885" />
          </g>
        </g>
      </g>
      <g
         id="g826"
         transform="translate(0,-1.9147701e-5)"
         inkscape:export-xdpi="4.7282939"
         inkscape:export-ydpi="4.7282939"
         inkscape:export-filename="/home/hugoposnic/Documents/Dev/huluti.github.io/favicon.png">
        <g
           id="g936"
           style="filter:url(#filter1200)">
          <path
             d="m 227.11461,139.04997 a 26.458334,26.458334 0 0 1 -25.65922,26.44627 26.458334,26.458334 0 0 1 -27.20917,-24.84877 26.458334,26.458334 0 0 1 24.01564,-27.94726 26.458334,26.458334 0 0 1 28.65985,23.1606"
             sodipodi:open="true"
             sodipodi:end="6.1623562"
             sodipodi:start="0"
             sodipodi:ry="26.458334"
             sodipodi:rx="26.458334"
             sodipodi:cy="139.04997"
             sodipodi:cx="200.65628"
             sodipodi:type="arc"
             id="path817"
             style="fill:#55efc4;fill-opacity:1;stroke:none;stroke-width:1.04794455;stroke-miterlimit:4;stroke-dasharray:none;stroke-opacity:1"
             transform="rotate(45)" />
          <path
             d="m 227.11461,112.59164 a 26.458334,26.458334 0 0 1 -25.65922,26.44626 26.458334,26.458334 0 0 1 -27.20917,-24.84877 26.458334,26.458334 0 0 1 24.01564,-27.94726 26.458334,26.458334 0 0 1 28.65985,23.1606"
             sodipodi:open="true"
             sodipodi:end="6.1623562"
             sodipodi:start="0"
             sodipodi:ry="26.458334"
             sodipodi:rx="26.458334"
             sodipodi:cy="112.59164"
             sodipodi:cx="200.65628"
             sodipodi:type="arc"
             id="path817-3"
             style="fill:#74b9ff;fill-opacity:1;stroke:none;stroke-width:1.04794455;stroke-miterlimit:4;stroke-dasharray:none;stroke-opacity:1"
             transform="rotate(45)" />
          <path
             d="m 240.34379,125.82082 a 26.458334,26.458334 0 0 1 -25.65923,26.44627 26.458334,26.458334 0 0 1 -27.20917,-24.84877 26.458334,26.458334 0 0 1 24.01564,-27.947263 26.458334,26.458334 0 0 1 28.65985,23.160603"
             sodipodi:open="true"
             sodipodi:end="6.1623562"
             sodipodi:start="0"
             sodipodi:ry="26.458334"
             sodipodi:rx="26.458334"
             sodipodi:cy="125.82082"
             sodipodi:cx="213.88545"
             sodipodi:type="arc"
             id="path817-3-6"
             style="fill:#ffeaa7;fill-opacity:1;stroke:none;stroke-width:1.04794455;stroke-miterlimit:4;stroke-dasharray:none;stroke-opacity:1"
             transform="rotate(45)" />
          <path
             d="m 213.88544,125.82082 a 26.458334,26.458334 0 0 1 -25.65922,26.44627 26.458334,26.458334 0 0 1 -27.20917,-24.84877 26.458334,26.458334 0 0 1 24.01564,-27.947263 26.458334,26.458334 0 0 1 28.65985,23.160603"
             sodipodi:open="true"
             sodipodi:end="6.1623562"
             sodipodi:start="0"
             sodipodi:ry="26.458334"
             sodipodi:rx="26.458334"
             sodipodi:cy="125.82082"
             sodipodi:cx="187.42711"
             sodipodi:type="arc"
             id="path817-3-6-3"
             style="fill:#fd79a8;fill-opacity:1;stroke:none;stroke-width:1.04794455;stroke-miterlimit:4;stroke-dasharray:none;stroke-opacity:1"
             transform="rotate(45)" />
        </g>
      </g>
    </g>
  </g>
</svg>
