<?xml version="1.0" encoding="UTF-8" standalone="no"?>
<!-- Created with Inkscape (http://www.inkscape.org/) -->

<svg
   xmlns:dc="http://purl.org/dc/elements/1.1/"
   xmlns:cc="http://creativecommons.org/ns#"
   xmlns:rdf="http://www.w3.org/1999/02/22-rdf-syntax-ns#"
   xmlns:svg="http://www.w3.org/2000/svg"
   xmlns="http://www.w3.org/2000/svg"
   xmlns:sodipodi="http://sodipodi.sourceforge.net/DTD/sodipodi-0.dtd"
   xmlns:inkscape="http://www.inkscape.org/namespaces/inkscape"
   width="1227.7926"
   height="324.85291"
   viewBox="0 0 324.85343 85.950668"
   version="1.1"
   id="svg8"
   inkscape:version="0.92.4 5da689c313, 2019-01-14"
   sodipodi:docname="hposolutions.svg">
  <defs
     id="defs2">
    <filter
       style="color-interpolation-filters:sRGB"
       inkscape:label="Drop Shadow"
       id="filter1200">
      <feFlood
         flood-opacity="0.294118"
         flood-color="rgb(0,0,0)"
         result="flood"
         id="feFlood1190" />
      <feComposite
         in="flood"
         in2="SourceGraphic"
         operator="in"
         result="composite1"
         id="feComposite1192" />
      <feGaussianBlur
         in="composite1"
         stdDeviation="3"
         result="blur"
         id="feGaussianBlur1194" />
      <feOffset
         dx="2"
         dy="2"
         result="offset"
         id="feOffset1196" />
      <feComposite
         in="SourceGraphic"
         in2="offset"
         operator="over"
         result="fbSourceGraphic"
         id="feComposite1198" />
      <feColorMatrix
         result="fbSourceGraphicAlpha"
         in="fbSourceGraphic"
         values="0 0 0 -1 0 0 0 0 -1 0 0 0 0 -1 0 0 0 0 1 0"
         id="feColorMatrix1202" />
      <feFlood
         id="feFlood1204"
         flood-opacity="0.294118"
         flood-color="rgb(0,0,0)"
         result="flood"
         in="fbSourceGraphic" />
      <feComposite
         in2="fbSourceGraphic"
         id="feComposite1206"
         in="flood"
         operator="in"
         result="composite1" />
      <feGaussianBlur
         id="feGaussianBlur1208"
         in="composite1"
         stdDeviation="3"
         result="blur" />
      <feOffset
         id="feOffset1210"
         dx="2"
         dy="2"
         result="offset" />
      <feComposite
         in2="offset"
         id="feComposite1212"
         in="fbSourceGraphic"
         operator="over"
         result="composite2" />
    </filter>
    <filter
       style="color-interpolation-filters:sRGB"
       inkscape:label="Drop Shadow"
       id="filter1224">
      <feFlood
         flood-opacity="0.294118"
         flood-color="rgb(0,0,0)"
         result="flood"
         id="feFlood1214" />
      <feComposite
         in="flood"
         in2="SourceGraphic"
         operator="in"
         result="composite1"
         id="feComposite1216" />
      <feGaussianBlur
         in="composite1"
         stdDeviation="3"
         result="blur"
         id="feGaussianBlur1218" />
      <feOffset
         dx="2"
         dy="2"
         result="offset"
         id="feOffset1220" />
      <feComposite
         in="SourceGraphic"
         in2="offset"
         operator="over"
         result="composite2"
         id="feComposite1222" />
    </filter>
  </defs>
  <sodipodi:namedview
     id="base"
     pagecolor="#ffffff"
     bordercolor="#666666"
     borderopacity="1.0"
     inkscape:pageopacity="0.0"
     inkscape:pageshadow="2"
     inkscape:zoom="0.59414786"
     inkscape:cx="802.31958"
     inkscape:cy="-19.591702"
     inkscape:document-units="mm"
     inkscape:current-layer="g900"
     showgrid="false"
     inkscape:window-width="1854"
     inkscape:window-height="1016"
     inkscape:window-x="66"
     inkscape:window-y="27"
     inkscape:window-maximized="1"
     units="px"
     inkscape:pagecheckerboard="true"
     inkscape:lockguides="true" />
  <metadata
     id="metadata5">
    <rdf:RDF>
      <cc:Work
         rdf:about="">
        <dc:format>image/svg+xml</dc:format>
        <dc:type
           rdf:resource="http://purl.org/dc/dcmitype/StillImage" />
        <dc:title />
      </cc:Work>
    </rdf:RDF>
  </metadata>
  <g
     inkscape:label="Calque 1"
     inkscape:groupmode="layer"
     id="layer1"
     transform="translate(-9.9413328,-187.87882)">
    <g
       id="g900">
      <g
         id="g826"
         transform="translate(0,-1.9147701e-5)"
         inkscape:export-xdpi="4.7282939"
         inkscape:export-ydpi="4.7282939"
         inkscape:export-filename="/home/hugoposnic/Documents/Dev/huluti.github.io/favicon.png">
        <g
           id="g936"
           style="filter:url(#filter1200)">
          <path
             d="m 227.11461,139.04997 a 26.458334,26.458334 0 0 1 -25.65922,26.44627 26.458334,26.458334 0 0 1 -27.20917,-24.84877 26.458334,26.458334 0 0 1 24.01564,-27.94726 26.458334,26.458334 0 0 1 28.65985,23.1606"
             sodipodi:open="true"
             sodipodi:end="6.1623562"
             sodipodi:start="0"
             sodipodi:ry="26.458334"
             sodipodi:rx="26.458334"
             sodipodi:cy="139.04997"
             sodipodi:cx="200.65628"
             sodipodi:type="arc"
             id="path817"
             style="fill:#55efc4;fill-opacity:1;stroke:none;stroke-width:1.04794455;stroke-miterlimit:4;stroke-dasharray:none;stroke-opacity:1"
             transform="rotate(45)" />
          <path
             d="m 227.11461,112.59164 a 26.458334,26.458334 0 0 1 -25.65922,26.44626 26.458334,26.458334 0 0 1 -27.20917,-24.84877 26.458334,26.458334 0 0 1 24.01564,-27.94726 26.458334,26.458334 0 0 1 28.65985,23.1606"
             sodipodi:open="true"
             sodipodi:end="6.1623562"
             sodipodi:start="0"
             sodipodi:ry="26.458334"
             sodipodi:rx="26.458334"
             sodipodi:cy="112.59164"
             sodipodi:cx="200.65628"
             sodipodi:type="arc"
             id="path817-3"
             style="fill:#74b9ff;fill-opacity:1;stroke:none;stroke-width:1.04794455;stroke-miterlimit:4;stroke-dasharray:none;stroke-opacity:1"
             transform="rotate(45)" />
          <path
             d="m 240.34379,125.82082 a 26.458334,26.458334 0 0 1 -25.65923,26.44627 26.458334,26.458334 0 0 1 -27.20917,-24.84877 26.458334,26.458334 0 0 1 24.01564,-27.947263 26.458334,26.458334 0 0 1 28.65985,23.160603"
             sodipodi:open="true"
             sodipodi:end="6.1623562"
             sodipodi:start="0"
             sodipodi:ry="26.458334"
             sodipodi:rx="26.458334"
             sodipodi:cy="125.82082"
             sodipodi:cx="213.88545"
             sodipodi:type="arc"
             id="path817-3-6"
             style="fill:#ffeaa7;fill-opacity:1;stroke:none;stroke-width:1.04794455;stroke-miterlimit:4;stroke-dasharray:none;stroke-opacity:1"
             transform="rotate(45)" />
          <path
             d="m 213.88544,125.82082 a 26.458334,26.458334 0 0 1 -25.65922,26.44627 26.458334,26.458334 0 0 1 -27.20917,-24.84877 26.458334,26.458334 0 0 1 24.01564,-27.947263 26.458334,26.458334 0 0 1 28.65985,23.160603"
             sodipodi:open="true"
             sodipodi:end="6.1623562"
             sodipodi:start="0"
             sodipodi:ry="26.458334"
             sodipodi:rx="26.458334"
             sodipodi:cy="125.82082"
             sodipodi:cx="187.42711"
             sodipodi:type="arc"
             id="path817-3-6-3"
             style="fill:#fd79a8;fill-opacity:1;stroke:none;stroke-width:1.04794455;stroke-miterlimit:4;stroke-dasharray:none;stroke-opacity:1"
             transform="rotate(45)" />
        </g>
      </g>
      <g
         aria-label="HPOSolutions"
         style="font-style:normal;font-weight:normal;font-size:35.27777863px;line-height:1.25;font-family:sans-serif;letter-spacing:0px;word-spacing:0px;fill:#000000;fill-opacity:1;stroke:none;stroke-width:0.26458332"
         id="text854">
        <path
           d="m 119.81036,221.31378 q 0.28222,-0.52916 0.9525,-0.74083 0.67027,-0.21167 1.69333,-0.21167 1.02306,0 1.62278,0.17639 0.59972,0.17639 0.91722,0.42333 0.3175,0.24695 0.49389,0.70556 0.17639,0.59972 0.17639,1.83444 v 19.57917 q 0,0.81139 -0.0706,1.23472 -0.0353,0.38806 -0.3175,0.91723 -0.49389,0.9525 -2.75166,0.9525 -2.46945,0 -2.89278,-1.30528 -0.21167,-0.59972 -0.21167,-1.83445 v -7.16138 h -9.34861 v 7.19666 q 0,0.81139 -0.0706,1.23472 -0.0353,0.38806 -0.3175,0.91723 -0.49389,0.9525 -2.75166,0.9525 -2.46945,0 -2.89278,-1.30528 -0.21167,-0.59972 -0.21167,-1.83445 v -19.57916 q 0,-0.81139 0.0353,-1.19945 0.0706,-0.42333 0.35278,-0.9525 0.49389,-0.9525 2.75166,-0.9525 2.46945,0 2.92806,1.30528 0.17639,0.59972 0.17639,1.83444 v 7.19667 h 9.34861 v -7.23194 q 0,-0.81139 0.0353,-1.19945 0.0706,-0.42333 0.35278,-0.9525 z"
           style="font-size:35.27777863px;fill:#454545;fill-opacity:1"
           id="path860" />
        <path
           d="m 147.58168,225.58239 q 0.91723,1.86973 0.91723,4.16278 0,2.29306 -0.91723,4.16278 -0.91722,1.83444 -2.36361,2.92806 -2.92805,2.25777 -6.06777,2.25777 h -4.40973 v 3.98639 q 0,0.81139 -0.0705,1.23472 -0.0353,0.38806 -0.3175,0.91723 -0.49389,0.9525 -2.75167,0.9525 -2.46944,0 -2.89278,-1.30528 -0.21166,-0.59972 -0.21166,-1.83445 v -19.57916 q 0,-0.81139 0.0353,-1.19945 0.0706,-0.42333 0.35278,-0.9525 0.49389,-0.9525 2.75167,-0.9525 h 7.54944 q 3.10445,0 6.0325,2.25778 1.44639,1.09361 2.36361,2.96333 z m -8.39611,7.26723 q 1.05834,0 2.08139,-0.77611 1.02306,-0.77612 1.02306,-2.32834 0,-1.55222 -1.02306,-2.32833 -1.02305,-0.81139 -2.11666,-0.81139 h -4.40973 v 6.24417 z"
           style="font-size:35.27777863px;fill:#454545;fill-opacity:1"
           id="path862" />
        <path
           d="m 162.95618,220.04378 q 5.22111,0 9.06639,3.77472 3.84528,3.77473 3.84528,9.38389 0,5.57389 -3.66889,9.525 -3.66889,3.91584 -9.03111,3.91584 -5.36222,0 -9.13695,-3.88056 -3.73944,-3.88055 -3.73944,-9.24278 0,-2.92805 1.05833,-5.46805 1.05834,-2.57528 2.82223,-4.30389 1.76388,-1.72861 4.05694,-2.71639 2.29306,-0.98778 4.72722,-0.98778 z m -6.42055,13.29973 q 0,3.13972 2.01083,5.11527 2.04611,1.94028 4.55083,1.94028 2.50473,0 4.51556,-1.905 2.01083,-1.905 2.01083,-5.11528 0,-3.21027 -2.04611,-5.15055 -2.01083,-1.94028 -4.51555,-1.94028 -2.50473,0 -4.51556,1.97556 -2.01083,1.94027 -2.01083,5.08 z"
           style="font-size:35.27777863px;fill:#454545;fill-opacity:1"
           id="path864" />
        <path
           d="m 178.56274,242.58628 q -0.91722,-1.12889 -0.91722,-2.01083 0,-0.91722 1.51694,-2.39889 0.88195,-0.84667 1.86972,-0.84667 0.98778,0 2.75167,1.76389 0.49389,0.59973 1.41111,1.16417 0.91722,0.52917 1.69334,0.52917 3.28083,0 3.28083,-2.68111 0,-0.81139 -0.91722,-1.34056 -0.88195,-0.56444 -2.2225,-0.81139 -1.34056,-0.24694 -2.89278,-0.77611 -1.55222,-0.56444 -2.89278,-1.30528 -1.34056,-0.74083 -2.25778,-2.32833 -0.88194,-1.62278 -0.88194,-3.88056 0,-3.10444 2.29305,-5.3975 2.32834,-2.32833 6.31473,-2.32833 2.11666,0 3.84527,0.56444 1.76389,0.52917 2.43417,1.09361 l 0.88195,0.67028 q 1.09361,1.02306 1.09361,1.72861 0,0.70556 -0.84667,1.94028 -1.19944,1.76389 -2.46944,1.76389 -0.74084,0 -1.83445,-0.70555 -0.10583,-0.0706 -0.42333,-0.35278 -0.28222,-0.28222 -0.52917,-0.45861 -0.74083,-0.45861 -1.905,-0.45861 -1.12889,0 -1.905,0.56444 -0.74083,0.52917 -0.74083,1.51694 0,0.9525 0.88194,1.55223 0.91722,0.59972 2.25778,0.81139 1.34056,0.21166 2.92806,0.67027 1.5875,0.42334 2.92805,1.05834 1.34056,0.635 2.2225,2.2225 0.91722,1.55222 0.91722,3.84527 0,2.29306 -0.91722,4.05695 -0.91722,1.72861 -2.39889,2.68111 -2.8575,1.86972 -6.10305,1.86972 -1.65806,0 -3.13973,-0.38805 -1.48166,-0.42334 -2.39888,-1.02306 -1.86973,-1.12889 -2.61056,-2.18722 z"
           style="font-size:35.27777863px;fill:#ffffff"
           id="path866" />
        <path
           d="m 198.24719,236.94184 q 0,-4.23333 2.96333,-6.985 2.96333,-2.75167 6.77333,-2.75167 3.81,0 6.73806,2.75167 2.92805,2.71639 2.92805,6.94972 0,2.92806 -1.51694,5.22111 -1.51694,2.25778 -3.70417,3.35139 -2.15194,1.05833 -4.48027,1.05833 -2.32834,0 -4.51556,-1.12888 -2.18722,-1.16417 -3.70417,-3.38667 -1.48166,-2.25778 -1.48166,-5.08 z m 7.37305,2.54 q 1.12889,0.84667 2.29306,0.84667 1.16416,0 2.32833,-0.88195 1.16417,-0.88194 1.16417,-2.61055 0,-1.72862 -1.09361,-2.57528 -1.09361,-0.84667 -2.36361,-0.84667 -1.27,0 -2.36362,0.88195 -1.09361,0.88194 -1.09361,2.61055 0,1.69333 1.12889,2.57528 z"
           style="font-size:35.27777863px;fill:#ffffff"
           id="path868" />
        <path
           d="m 219.92924,221.98406 q 0,-0.81139 0.0353,-1.19944 0.0705,-0.42334 0.3175,-0.9525 0.49389,-0.9525 2.75166,-0.9525 2.15195,0 2.68111,0.9525 0.28223,0.52916 0.3175,0.9525 0.0706,0.42333 0.0706,1.23472 v 16.33361 q 0,1.27 0.21167,1.62278 0.21166,0.3175 0.91722,0.3175 0.74083,0 0.98778,0.0705 0.24694,0.0353 0.59972,0.28223 0.70555,0.45861 0.70555,2.50472 0,2.2225 -0.70555,2.71639 -0.91722,0.635 -4.37445,0.21166 -2.71638,-0.35277 -3.52777,-1.79916 -0.98778,-1.72861 -0.98778,-5.50334 z"
           style="font-size:35.27777863px;fill:#ffffff"
           id="path870" />
        <path
           d="m 239.34635,246.14934 q -3.56306,0 -5.92667,-2.68111 -2.32833,-2.71639 -2.32833,-6.59695 v -6.17361 q 0,-0.84666 0.0353,-1.23472 0.0705,-0.38806 0.3175,-0.91722 0.49388,-0.9525 2.75166,-0.9525 2.46945,0 2.89278,1.34055 0.21167,0.56445 0.21167,1.79917 v 6.17361 q 0,1.44639 0.81139,2.25778 0.84666,0.81139 2.2225,0.81139 1.41111,0 2.25777,-0.84667 0.88195,-0.84667 0.88195,-2.2225 v -6.24417 q 0,-0.81138 0.0353,-1.19944 0.0705,-0.42333 0.35277,-0.9525 0.45861,-0.91722 2.71639,-0.91722 2.2225,0 2.71639,0.9525 0.24695,0.52916 0.28222,0.9525 0.0706,0.38805 0.0706,1.19944 v 12.48834 q 0,0.77611 -0.0706,1.19944 -0.0353,0.38806 -0.3175,0.88194 -0.52916,0.91723 -2.71639,0.91723 -2.15194,0 -2.64583,-0.84667 -0.35278,-0.59972 -0.35278,-1.44639 -0.14111,0.24695 -0.635,0.70556 -0.49389,0.45861 -0.9525,0.77611 -1.19944,0.77611 -2.61055,0.77611 z"
           style="font-size:35.27777863px;fill:#ffffff"
           id="path872" />
        <path
           d="m 263.24595,233.87267 -2.29305,-0.14111 v 4.86833 q 0,0.9525 0.28222,1.37584 0.3175,0.42333 1.12889,0.42333 0.84666,0 1.27,0.0706 0.45861,0.0353 0.9525,0.3175 0.81139,0.45861 0.81139,2.36361 0,2.2225 -0.98778,2.71639 -0.52917,0.24694 -0.9525,0.3175 -0.38806,0.0353 -1.16417,0.0353 -3.66889,0 -5.57389,-1.65805 -1.905,-1.65806 -1.905,-5.60917 v -5.22111 q -0.67027,0.10583 -1.44639,0.10583 -0.77611,0 -1.30527,-0.59972 -0.49389,-0.59972 -0.49389,-2.04611 0,-1.44639 0.17639,-2.08139 0.17639,-0.67028 0.49389,-0.9525 0.56444,-0.45861 1.41111,-0.45861 l 1.16416,0.14111 v -3.63361 q 0,-0.81139 0.0353,-1.19944 0.0706,-0.38806 0.35278,-0.84667 0.45861,-0.88195 2.71639,-0.88195 2.39889,0 2.8575,1.30528 0.17639,0.56445 0.17639,1.79917 v 3.45722 q 1.55222,-0.14111 2.32833,-0.14111 0.81139,0 1.19944,0.0706 0.42334,0.0353 0.9525,0.3175 0.91723,0.45861 0.91723,2.71639 0,2.2225 -0.9525,2.71638 -0.52917,0.24695 -0.9525,0.3175 -0.38806,0.0353 -1.19945,0.0353 z"
           style="font-size:35.27777863px;fill:#ffffff"
           id="path874" />
        <path
           d="m 268.29838,230.73295 q 0,-0.81139 0.0353,-1.19944 0.0705,-0.42334 0.3175,-0.9525 0.49389,-0.91723 2.75166,-0.91723 1.69334,0 2.39889,0.59973 0.59972,0.49388 0.635,1.51694 0.0353,0.35278 0.0353,1.02306 v 12.34722 q 0,0.81139 -0.0706,1.23472 -0.0353,0.38806 -0.3175,0.91722 -0.45861,0.91722 -2.71638,0.91722 -2.2225,0 -2.71639,-0.9525 -0.24695,-0.52916 -0.3175,-0.91722 -0.0353,-0.38805 -0.0353,-1.23472 z m 5.78555,-6.52639 q -0.24694,0.49389 -0.91722,0.70556 -0.67028,0.21166 -1.79916,0.21166 -1.09362,0 -1.76389,-0.21166 -0.67028,-0.21167 -0.9525,-0.74084 -0.24695,-0.52916 -0.3175,-0.91722 -0.0353,-0.42333 -0.0353,-1.23472 0,-0.81139 0.0353,-1.19945 0.0705,-0.42333 0.3175,-0.91722 0.49389,-0.9525 2.75166,-0.9525 2.2225,0 2.68111,0.9525 0.28223,0.52917 0.3175,0.9525 0.0706,0.38806 0.0706,1.19945 0,0.81138 -0.0706,1.23472 -0.0353,0.38805 -0.3175,0.91722 z"
           style="font-size:35.27777863px;fill:#ffffff"
           id="path876" />
        <path
           d="m 276.79537,236.94184 q 0,-4.23333 2.96333,-6.985 2.96333,-2.75167 6.77333,-2.75167 3.81,0 6.73806,2.75167 2.92805,2.71639 2.92805,6.94972 0,2.92806 -1.51694,5.22111 -1.51694,2.25778 -3.70417,3.35139 -2.15194,1.05833 -4.48027,1.05833 -2.32834,0 -4.51556,-1.12888 -2.18722,-1.16417 -3.70417,-3.38667 -1.48166,-2.25778 -1.48166,-5.08 z m 7.37305,2.54 q 1.12889,0.84667 2.29306,0.84667 1.16416,0 2.32833,-0.88195 1.16417,-0.88194 1.16417,-2.61055 0,-1.72862 -1.09361,-2.57528 -1.09361,-0.84667 -2.36361,-0.84667 -1.27,0 -2.36362,0.88195 -1.09361,0.88194 -1.09361,2.61055 0,1.69333 1.12889,2.57528 z"
           style="font-size:35.27777863px;fill:#ffffff"
           id="path878" />
        <path
           d="m 308.81381,227.62851 q 3.52778,0 5.85612,2.71638 2.36361,2.68112 2.36361,6.56167 v 6.20889 q 0,0.81139 -0.0706,1.23472 -0.0353,0.38806 -0.28222,0.88195 -0.49389,0.9525 -2.75167,0.9525 -2.50472,0 -2.89277,-1.30528 -0.21167,-0.59972 -0.21167,-1.79917 v -6.20889 q 0,-1.44639 -0.84667,-2.25777 -0.81139,-0.81139 -2.2225,-0.81139 -1.37583,0 -2.25778,0.84666 -0.84666,0.84667 -0.84666,2.2225 v 6.24417 q 0,0.81139 -0.0706,1.23472 -0.0353,0.38806 -0.3175,0.88195 -0.45861,0.9525 -2.71639,0.9525 -2.2225,0 -2.71639,-0.9525 -0.24694,-0.52917 -0.3175,-0.91723 -0.0353,-0.42333 -0.0353,-1.23472 v -12.48833 q 0,-0.77611 0.0353,-1.16417 0.0706,-0.42333 0.35278,-0.91722 0.49389,-0.88194 2.71639,-0.88194 2.15194,0 2.64583,0.81138 0.35278,0.59973 0.35278,1.44639 0.14111,-0.24694 0.635,-0.70555 0.49389,-0.45861 0.9525,-0.74084 1.19945,-0.81138 2.64583,-0.81138 z"
           style="font-size:35.27777863px;fill:#ffffff"
           id="path880" />
        <path
           d="m 319.97813,244.56184 q -0.67028,-0.42333 -0.67028,-1.34056 0,-0.91722 1.34055,-2.78694 0.38806,-0.59972 1.23473,-0.59972 0.88194,0 2.36361,0.88194 1.48166,0.84667 2.68111,0.84667 2.15194,0 2.15194,-0.84667 0,-0.67028 -2.36361,-0.98778 -2.2225,-0.3175 -4.40972,-1.65805 -1.02306,-0.635 -1.69333,-1.97556 -0.67028,-1.37583 -0.67028,-3.24555 0,-5.57389 7.65528,-5.57389 2.50472,0 5.15055,1.19944 1.23472,0.56445 1.23472,1.41111 0,0.84667 -0.77611,2.08139 -0.77611,1.23472 -1.5875,1.23472 -0.42333,0 -1.5875,-0.52916 -1.12889,-0.52917 -2.46944,-0.52917 -2.08139,0 -2.08139,0.77611 0,1.05834 2.39889,1.37584 2.32833,0.24694 4.51555,1.34055 1.02306,0.49389 1.69334,1.72861 0.70555,1.19945 0.70555,3.03389 0,1.83445 -0.70555,3.13972 -0.67028,1.27 -1.905,1.905 -2.25778,1.09361 -5.67973,1.09361 -3.38666,0 -6.52638,-1.97555 z"
           style="font-size:35.27777863px;fill:#ffffff"
           id="path882" />
      </g>
    </g>
  </g>
</svg>
